<?xml version="1.0" encoding="utf-8"?>
<!-- Kaynak: qr/beynelmilel-org.svg (segno, EC H). Yalnız koyu modül rengi 17181a -> 1f3864 (lacivert); geometri aynı. -->
<svg xmlns="http://www.w3.org/2000/svg" width="370" height="370" class="segno"><g transform="scale(10)"><path fill="#fff" d="M0 0h37v37h-37z"/><path class="qrline" stroke="#1f3864" d="M4 4.5h7m1 0h2m2 0h2m4 0h3m1 0h7m-29 1h1m5 0h1m2 0h3m2 0h1m2 0h1m2 0h1m1 0h1m5 0h1m-29 1h1m1 0h3m1 0h1m1 0h5m1 0h2m2 0h3m1 0h1m1 0h3m1 0h1m-29 1h1m1 0h3m1 0h1m3 0h1m2 0h3m1 0h1m1 0h2m1 0h1m1 0h3m1 0h1m-29 1h1m1 0h3m1 0h1m1 0h1m4 0h1m1 0h2m1 0h3m1 0h1m1 0h3m1 0h1m-29 1h1m5 0h1m3 0h1m1 0h1m2 0h2m1 0h1m1 0h1m1 0h1m5 0h1m-29 1h7m1 0h1m1 0h1m1 0h1m1 0h1m1 0h1m1 0h1m1 0h1m1 0h7m-21 1h1m1 0h2m1 0h3m2 0h1m-14 1h2m4 0h5m2 0h2m2 0h1m1 0h1m1 0h1m1 0h1m-29 1h1m3 0h1m4 0h2m2 0h1m1 0h1m1 0h4m3 0h2m1 0h1m-28 1h1m1 0h1m2 0h4m2 0h7m2 0h1m1 0h1m1 0h2m-24 1h2m3 0h3m1 0h2m1 0h1m1 0h1m1 0h6m1 0h1m-22 1h1m1 0h2m2 0h3m1 0h4m1 0h1m1 0h3m1 0h1m1 0h1m-26 1h1m1 0h2m2 0h2m1 0h2m4 0h1m1 0h2m1 0h1m1 0h2m2 0h1m-29 1h3m1 0h1m1 0h1m1 0h3m1 0h1m1 0h3m3 0h1m1 0h1m-23 1h2m3 0h1m1 0h1m1 0h2m2 0h1m3 0h2m6 0h2m1 0h1m-26 1h1m1 0h2m3 0h1m1 0h1m12 0h2m1 0h1m-29 1h1m2 0h3m2 0h1m2 0h2m1 0h1m1 0h1m2 0h2m1 0h3m1 0h1m1 0h1m-29 1h2m4 0h2m1 0h4m2 0h1m2 0h3m3 0h1m1 0h1m1 0h1m-29 1h1m2 0h1m1 0h1m1 0h2m1 0h1m1 0h1m1 0h3m1 0h2m1 0h5m1 0h2m-29 1h1m1 0h1m3 0h2m1 0h3m4 0h1m1 0h1m1 0h5m1 0h1m-19 1h3m1 0h1m3 0h1m3 0h1m3 0h3m-27 1h7m3 0h2m2 0h3m2 0h2m1 0h1m1 0h1m-25 1h1m5 0h1m1 0h1m1 0h1m1 0h1m4 0h4m3 0h2m1 0h1m-28 1h1m1 0h3m1 0h1m2 0h2m1 0h1m1 0h1m1 0h9m3 0h1m-29 1h1m1 0h3m1 0h1m3 0h2m1 0h1m2 0h3m1 0h2m1 0h1m1 0h3m-28 1h1m1 0h3m1 0h1m4 0h2m2 0h1m5 0h2m1 0h1m2 0h1m-28 1h1m5 0h1m3 0h1m1 0h5m2 0h1m1 0h1m2 0h3m1 0h1m-29 1h7m5 0h1m3 0h4m2 0h1m1 0h1m1 0h1"/></g></svg>
